<svg aria-label="BR24 Logo" role="img" viewBox="0 0 100 100" xmlns="http://www.w3.org/2000/svg" class="css-1k2s36v-styles--BR24Logo-styles--calcBreadcrumbWidth e2eyo41"><title>BR24 Logo</title><path d="M-.08-.08h100.17v100.17H-.08V-.08z" fill="#292d3b" style="--darkreader-inline-fill: #21242f;" data-darkreader-inline-fill=""></path><path d="M-.08 91.84h100.17v8.25H-.08v-8.25z" fill="#0b9fd8" style="--darkreader-inline-fill: #097fad;" data-darkreader-inline-fill=""></path><path d="M49.11 31.72c4.86-1.68 8.33-5.55 8.33-11.3 0-1.44-.73-4.94-3.38-7.19-1.75-1.49-4.27-3.25-12.42-3.44-1.68-.04-6.8.14-6.8.14v.29c1.45 1.11 3 2.93 3.75 5.05.78-.03 1.96-.09 3.12-.03 3.27.18 4.7.79 6.17 1.94 1.48 1.16 2.28 3.16 2.27 4.97-.01 2.47-1.18 5.03-4.76 6.49C42.5 29.82 39 30.08 39 30.08v.9s2.09 1 4.19 3.77c1.8 2.38 12.26 17.78 12.26 17.78h8.64c.01 0-13.96-19.46-14.98-20.81zm-18.99-2.17c3.32-1.96 5.45-4.85 5.45-9.15 0-4.6-2.73-10.68-14.17-10.68-5.54 0-11.69.21-11.69.21v42.61h9.76c12.41 0 18.98-4.58 18.98-13.23 0-5.17-3.24-8.58-8.33-9.76zm-8.65 17.04h-4.84V15.2c.06 0 2.17-.03 3.48-.03 5.4 0 8.4 2.79 8.48 6.63.05 2.33-.64 4.56-3.01 6.2-1.94 1.34-4.64 1.74-4.64 1.74v1.01s3.74.56 5.65 1.45c3.54 1.65 4.59 4.22 4.62 7.54.03 5.25-5.03 6.85-9.74 6.85z" fill="#fff" style="--darkreader-inline-fill: #181a1b;" data-darkreader-inline-fill=""></path><path d="M63.74 30.51v-3.32l3.1-3.5c.9-1 1.64-1.89 2.21-2.67.57-.78 1.03-1.47 1.37-2.07.34-.6.57-1.15.69-1.63s.18-.94.18-1.37c0-.82-.25-1.51-.74-2.06s-1.24-.83-2.24-.83c-.66 0-1.33.11-2.01.34-.69.23-1.3.5-1.83.83l-.58-3.56c.7-.35 1.49-.63 2.4-.86.9-.22 1.93-.34 3.1-.34 1.04 0 1.96.15 2.75.46.79.31 1.44.72 1.97 1.24.52.52.91 1.14 1.17 1.84.26.71.38 1.46.38 2.26 0 .68-.09 1.36-.28 2.06-.18.7-.48 1.42-.88 2.18-.4.76-.91 1.56-1.52 2.41-.61.85-1.35 1.77-2.21 2.75l-1.84 2.15v.03c1.09-.06 2.23-.1 3.43-.11 1.2-.01 2.5-.01 3.92-.01v3.78H63.74zm27.13-4.94v4.95H87v-4.95h-8.42l-.55-3.13 7.86-12.66h4.98v12.2h3.1v3.59h-3.1zm-3.81-12.02h-.03l-5.19 8.54c.33-.02.74-.04 1.25-.05.5-.01 1-.01 1.51-.01h2.47v-8.48h-.01z" fill="#fff" style="--darkreader-inline-fill: #e8e6e3;" data-darkreader-inline-fill=""></path></svg>
